<?xml version="1.0" encoding="UTF-8" standalone="no" ?>
<!DOCTYPE svg PUBLIC "-//W3C//DTD SVG 1.1//EN" "http://www.w3.org/Graphics/SVG/1.1/DTD/svg11.dtd">
<svg xmlns="http://www.w3.org/2000/svg" xmlns:xlink="http://www.w3.org/1999/xlink" version="1.1" width="512" height="512" viewBox="0 0 682.67 682.67" xml:space="preserve">
<desc>Created with Fabric.js 3.6.3</desc>
<defs>
</defs>
<rect x="0" y="0" width="100%" height="100%" fill="rgba(204, 29, 29, 0)"></rect>
<g transform="matrix(0.92 0 0 0.92 206.7 38.98)"  >
<path style="stroke: none; stroke-width: 1; stroke-dasharray: none; stroke-linecap: butt; stroke-dashoffset: 0; stroke-linejoin: miter; stroke-miterlimit: 4; fill: rgb(55,65,73); fill-rule: nonzero; opacity: 1;"  transform=" translate(-122.86, -37.29)" d="M 122.867 37.289 c -0.004 0 -0.004 0.004 -0.008 0.004 L 122.867 37.289 L 122.867 37.289 z" stroke-linecap="round" />
</g>
<g transform="matrix(1.7 0 0 1.7 -32.96 112.98)"  >
<path style="stroke: none; stroke-width: 1; stroke-dasharray: none; stroke-linecap: butt; stroke-dashoffset: 0; stroke-linejoin: miter; stroke-miterlimit: 4; fill: rgb(55,65,73); fill-rule: nonzero; opacity: 1;"  transform=" translate(-37.3, -122.86)" d="M 37.293 122.867 l 0.004 -0.012 v 0.004 C 37.297 122.859 37.293 122.863 37.293 122.867 z" stroke-linecap="round" />
</g>
<g transform="matrix(1.69 0 0 1.69 341.66 340.38)"  >
<g style=""   >
		<g transform="matrix(0.04 0 0 -0.04 0 0)"  >
<path style="stroke: none; stroke-width: 1; stroke-dasharray: none; stroke-linecap: butt; stroke-dashoffset: 0; stroke-linejoin: miter; stroke-miterlimit: 4; fill: rgb(255,255,255); fill-rule: nonzero; opacity: 1;"  transform=" translate(-5000, -110.05)" d="M 563.9 5000.3 c -174 -42.5 -332.5 -174 -415.6 -340.2 l -48.3 -96.6 V 108.1 v -4455.4 l 48.3 -96.6 c 59.9 -123.7 175.9 -239.7 299.6 -299.6 l 96.6 -48.3 H 5000 h 4455.4 l 96.7 48.3 c 123.7 59.9 239.7 175.9 299.6 299.6 l 48.3 96.6 V 108.1 v 4455.4 l -48.3 96.6 c -59.9 123.7 -175.9 239.7 -299.6 299.6 l -96.7 48.3 l -4416.8 3.9 C 2608.9 5011.9 596.8 5008.1 563.9 5000.3 z M 1134.1 4590.5 c 355.7 -160.4 380.8 -626.3 44.5 -823.4 c -172 -100.5 -409.8 -63.8 -550.9 85.1 c -177.8 187.5 -174 448.4 13.5 634 C 786.2 4633.1 962.1 4669.8 1134.1 4590.5 z M 9248.6 4559.6 c 50.3 -30.9 116 -92.8 148.8 -137.2 c 48.3 -71.5 58 -106.3 63.8 -226.2 c 7.7 -127.6 1.9 -152.7 -46.4 -243.5 c -230 -419.4 -858.2 -259 -858.2 220.4 C 8556.6 4526.8 8949 4745.2 9248.6 4559.6 z M 5427.2 4437.8 c 997.4 -98.6 1934.9 -543.2 2646.2 -1256.4 c 351.8 -351.8 599.2 -695.9 821.5 -1150.1 c 291.9 -591.5 427.2 -1125 448.4 -1778.3 C 9411 -1668.3 8199 -3409.9 6372.4 -4016.8 c -775.1 -259 -1637.2 -293.8 -2418.1 -96.6 C 2900.8 -3850.6 1975 -3197.3 1373.8 -2294.6 C 749.5 -1355.2 513.6 -174.2 728.2 931.5 c 191.4 976.1 724.9 1884.6 1472.9 2505.1 C 3113.4 4194.3 4269.4 4551.9 5427.2 4437.8 z M 1130.3 -3460.1 c 88.9 -36.7 189.4 -131.4 235.8 -220.4 c 154.6 -301.5 -65.7 -661.1 -404 -661.1 c -485.2 0 -645.6 645.6 -210.7 862.1 C 869.3 -3421.5 1018.1 -3411.8 1130.3 -3460.1 z M 9182.9 -3456.3 c 92.8 -38.7 206.8 -145 245.5 -233.9 c 48.3 -102.4 46.4 -284.1 0 -386.6 c -137.2 -293.8 -541.2 -355.7 -753.8 -116 c -116 133.4 -146.9 284.1 -94.7 462 c 29 96.6 172 245.5 266.7 276.4 C 8943.2 -3423.4 9107.5 -3425.4 9182.9 -3456.3 z" stroke-linecap="round" />
</g>
		<g transform="matrix(0.04 0 0 -0.04 -0.01 0.07)"  >
<path style="stroke: none; stroke-width: 1; stroke-dasharray: none; stroke-linecap: butt; stroke-dashoffset: 0; stroke-linejoin: miter; stroke-miterlimit: 4; fill: rgb(255,255,255); fill-rule: nonzero; opacity: 1;"  transform=" translate(-4999.84, -108.31)" d="M 4596 4028.1 c -98.6 -9.7 -193.3 -23.2 -206.8 -30.9 c -21.3 -11.6 -7.7 -40.6 54.1 -119.8 c 303.5 -402 547 -881.4 661.1 -1310.5 l 48.3 -177.8 h -148.8 c -170.1 0 -469.7 -42.5 -612.7 -85 c -52.2 -15.5 -96.6 -27.1 -96.6 -25.1 c -73.4 117.9 -274.5 390.5 -376.9 510.3 c -220.4 257.1 -568.3 535.4 -835 663 l -88.9 44.5 l -90.8 -52.2 c -177.8 -104.4 -487.1 -353.7 -686.2 -552.8 c -338.3 -336.3 -620.5 -744.2 -813.8 -1179.1 c -50.3 -112.1 -88.9 -204.9 -85 -208.8 c 3.9 -3.9 108.2 3.9 233.9 15.5 c 278.3 29 864 15.5 1086.3 -27.1 c 87 -15.5 228.1 -48.3 313.1 -71.5 l 152.7 -40.6 l -58 -98.6 c -92.8 -156.6 -152.7 -297.7 -220.4 -506.4 l -61.9 -193.3 l -197.2 -13.5 c -496.8 -32.9 -1018.7 -191.4 -1380.1 -419.4 c -146.9 -94.7 -141.1 -71.5 -110.2 -390.5 c 73.4 -742.2 328.6 -1414.9 757.7 -1992.9 l 116 -156.6 l 139.2 288 c 162.4 332.4 291.9 550.9 467.8 775.1 c 131.4 166.2 363.4 411.7 390.4 411.7 c 9.7 0 36.7 -36.7 61.9 -81.2 c 79.3 -145 216.5 -330.5 344.1 -462 l 121.8 -129.5 l -87 -172 c -102.5 -204.9 -203 -489 -260.9 -732.6 c -48.3 -208.8 -81.2 -577.9 -65.7 -732.6 l 11.6 -108.2 l 218.4 -106.3 c 612.7 -295.8 1333.7 -433 2002.5 -376.9 c 162.4 11.6 303.5 29 318.9 36.7 c 19.3 11.6 3.9 42.5 -56.1 119.8 c -303.5 402.1 -547 881.4 -661.1 1310.5 l -48.3 177.8 h 148.8 c 170.1 0 469.7 42.5 612.7 85 c 52.2 15.5 96.7 27.1 96.7 25.1 c 73.4 -117.9 274.5 -390.5 376.9 -510.3 c 220.4 -257.1 568.3 -535.4 835 -663 l 88.9 -44.5 l 90.8 52.2 c 177.8 106.3 487.1 353.7 686.2 552.8 c 340.2 340.2 620.5 746.1 813.8 1179.1 c 50.3 112.1 88.9 206.8 85.1 210.7 c -3.9 1.9 -116 -5.8 -251.3 -17.4 c -293.8 -29 -840.8 -15.4 -1068.9 27.1 c -87 15.5 -228.1 48.3 -313.1 71.5 l -152.7 40.6 l 58 98.6 c 92.8 156.6 152.7 297.7 220.4 506.4 l 61.9 193.3 l 191.3 13.5 c 514.2 36.7 1028.3 193.3 1405.3 431 c 125.6 79.3 119.8 56 90.8 367.3 c -67.7 734.5 -326.7 1424.6 -757.7 2004.5 l -116 156.6 l -139.2 -288 c -162.4 -332.5 -291.9 -550.9 -467.8 -775.1 c -131.5 -166.2 -363.4 -411.7 -390.5 -411.7 c -9.7 0 -36.7 36.7 -61.9 83.1 c -79.2 143 -216.5 328.6 -342.1 460 L 6527 1803.3 l 94.7 201 c 112.1 232 216.5 539.3 262.9 761.6 c 36.7 175.9 61.9 508.4 52.2 672.7 l -7.7 112.1 l -218.4 106.3 C 6065 3968.1 5330.5 4097.7 4596 4028.1 z M 5429.1 1791.7 c 626.3 -162.4 1107.6 -655.3 1266.1 -1291.2 c 44.5 -179.8 44.5 -605 0 -784.8 c -160.4 -647.5 -655.3 -1142.4 -1302.8 -1302.8 c -179.8 -44.5 -605 -44.5 -784.8 0 c -647.5 160.4 -1140.4 653.3 -1302.8 1302.8 c -50.2 199.1 -44.5 624.3 11.6 827.3 c 179.8 663 703.6 1148.2 1380.1 1277.7 C 4884 1855.4 5235.8 1841.9 5429.1 1791.7 z" stroke-linecap="round" />
</g>
		<g transform="matrix(0.04 0 0 -0.04 0 -0.05)"  >
<path style="stroke: none; stroke-width: 1; stroke-dasharray: none; stroke-linecap: butt; stroke-dashoffset: 0; stroke-linejoin: miter; stroke-miterlimit: 4; fill: rgb(255,255,255); fill-rule: nonzero; opacity: 1;"  transform=" translate(-4999.95, -111.42)" d="M 4719.7 1434.1 c -491 -116 -854.4 -444.6 -1010.9 -914.3 c -44.5 -133.4 -50.3 -181.7 -50.3 -411.7 c 0 -230 5.8 -278.3 50.3 -411.7 c 139.2 -417.5 462 -740.3 879.5 -879.5 c 131.4 -44.5 183.6 -50.2 411.7 -50.2 c 235.8 0 276.4 3.8 415.6 54.1 c 429.1 148.8 722.9 442.6 871.7 871.8 c 50.3 139.2 54.1 179.8 54.1 415.6 c 0 228.1 -5.8 280.3 -50.3 411.7 c -139.2 417.5 -467.8 744.2 -879.5 877.6 C 5224.2 1457.3 4897.6 1474.7 4719.7 1434.1 z" stroke-linecap="round" />
</g>
</g>
</g>
</svg>