<svg width="512" height="512" viewBox="0 0 512 512" fill="none" xmlns="http://www.w3.org/2000/svg">
<path d="M255.57 41.2565C249.333 41.2565 243.325 41.5663 237.225 42.0904C181.13 79.298 191.495 148.28 226.384 210.531C234.782 205.021 244.775 201.359 255.57 201.359C256.415 201.359 257.236 201.32 258.071 201.359C275.144 130.67 341.903 77.7595 361.471 69.6079C330.237 51.7042 294.152 41.2565 255.57 41.2565ZM148.835 70.4418C111.442 92.145 81.5013 124.529 62.9469 163.835C66.6016 231.466 130.825 257.151 202.202 258.061C202.133 256.952 202.202 255.853 202.202 254.726C202.202 244.072 205.162 233.871 210.541 225.541C158.214 175.415 146.157 91.5718 148.835 70.4418ZM393.157 122.975C347.753 121.568 307.699 158.674 278.918 207.196C289.318 212.299 297.86 220.223 303.1 230.544C373.21 210.282 453.177 242.114 469.039 254.726C469.039 209.427 454.745 167.535 430.681 132.982C417.977 126.626 405.249 123.35 393.157 122.975ZM308.937 251.39C309.006 252.5 308.937 253.599 308.937 254.726C308.937 265.38 305.977 275.581 300.598 283.911C352.926 334.037 364.982 417.88 362.304 439.01C399.698 417.307 429.638 384.923 448.192 345.617C444.538 277.985 380.315 252.301 308.937 251.39ZM42.1003 254.726C42.1003 300.025 56.3939 341.917 80.458 376.47C140.867 406.692 195.775 363.7 232.221 302.256C221.821 297.153 213.279 289.228 208.039 278.908C137.929 299.17 57.9626 267.337 42.1003 254.726ZM284.755 298.921C276.357 304.431 266.364 308.093 255.57 308.093C254.724 308.093 253.904 308.132 253.068 308.093C235.995 378.782 169.237 431.692 149.669 439.844C180.902 457.748 216.988 468.195 255.57 468.195C261.806 468.195 267.814 467.886 273.915 467.361C330.009 430.154 319.644 361.172 284.755 298.921Z" fill="white"/>
</svg>
