<svg width="512" height="512" viewBox="0 0 512 512" fill="none" xmlns="http://www.w3.org/2000/svg">
<path fill-rule="evenodd" clip-rule="evenodd" d="M11 58C11 32.0426 32.0426 11 58 11H455C480.957 11 502 32.0426 502 58V455C502 480.957 480.957 502 455 502H58C32.0426 502 11 480.957 11 455V58ZM256.571 38.708C250.231 38.708 244.124 39.0229 237.922 39.5556C180.898 77.3796 191.435 147.504 226.902 210.786C235.439 205.185 245.597 201.462 256.571 201.462C256.692 201.462 256.813 201.461 256.934 201.46C257.099 201.458 257.263 201.456 257.427 201.453C257.99 201.444 258.549 201.436 259.114 201.462C276.469 129.603 344.334 75.8156 364.226 67.529C332.475 49.3287 295.792 38.708 256.571 38.708ZM148.068 68.3766C110.056 90.4393 79.6193 123.36 60.7576 163.316C64.4728 232.068 129.76 258.178 202.32 259.104C202.273 258.354 202.288 257.608 202.304 256.856C202.312 256.477 202.32 256.097 202.32 255.713C202.32 244.883 205.328 234.513 210.796 226.044C157.602 175.089 145.346 89.8567 148.068 68.3766ZM396.437 121.78C350.281 120.349 309.564 158.07 280.306 207.396C290.879 212.583 299.562 220.639 304.888 231.13C376.16 210.533 457.451 242.893 473.576 255.713C473.576 209.664 459.046 167.078 434.583 131.952C421.668 125.491 408.73 122.161 396.437 121.78ZM310.838 254.57C310.83 254.949 310.822 255.33 310.822 255.713C310.822 266.543 307.813 276.913 302.345 285.382C355.539 336.337 367.796 421.57 365.073 443.05C403.086 420.987 433.522 388.067 452.384 348.11C448.669 279.358 383.382 253.248 310.822 252.322C310.869 253.072 310.853 253.818 310.838 254.57ZM39.5657 255.713C39.5657 301.762 54.096 344.349 78.5588 379.474C139.968 410.196 195.786 366.492 232.836 304.031C222.263 298.843 213.58 290.787 208.253 280.296C136.982 300.893 55.6908 268.533 39.5657 255.713ZM286.24 300.64C277.703 306.241 267.544 309.964 256.571 309.964C256.283 309.964 255.998 309.969 255.715 309.973C255.151 309.982 254.593 309.991 254.028 309.964C236.672 381.824 168.808 435.611 148.916 443.897C180.667 462.097 217.35 472.718 256.571 472.718C262.911 472.718 269.018 472.403 275.22 471.871C332.243 434.047 321.707 363.922 286.24 300.64ZM281.941 265.903C283.306 262.619 284.009 259.101 284.009 255.547C284.009 251.993 283.306 248.474 281.941 245.191C280.576 241.908 278.575 238.924 276.052 236.411C273.53 233.899 270.536 231.905 267.24 230.545C263.944 229.185 260.412 228.485 256.845 228.485C253.278 228.485 249.745 229.185 246.45 230.545C243.154 231.905 240.159 233.899 237.637 236.411C235.115 238.924 233.114 241.908 231.749 245.191C230.384 248.474 229.681 251.993 229.681 255.547C229.681 259.101 230.384 262.619 231.749 265.903C233.114 269.186 235.115 272.169 237.637 274.682C240.159 277.195 243.154 279.188 246.45 280.548C249.745 281.908 253.278 282.608 256.845 282.608C260.412 282.608 263.944 281.908 267.24 280.548C270.536 279.188 273.53 277.195 276.052 274.682C278.575 272.169 280.576 269.186 281.941 265.903Z" fill="white"/>
</svg>
