<svg width="491" height="491" viewBox="0 0 491 491" fill="none" xmlns="http://www.w3.org/2000/svg">
<path fill-rule="evenodd" clip-rule="evenodd" d="M0 47C0 21.0426 21.0426 0 47 0H444C469.957 0 491 21.0426 491 47V444C491 469.957 469.957 491 444 491H47C21.0426 491 0 469.957 0 444V47ZM245.571 27.708C239.231 27.708 233.124 28.0229 226.922 28.5556C169.898 66.3796 180.435 136.504 215.902 199.786C224.439 194.185 234.597 190.462 245.571 190.462C245.692 190.462 245.813 190.461 245.934 190.46C246.099 190.458 246.263 190.456 246.427 190.453C246.99 190.444 247.549 190.436 248.114 190.462C265.469 118.603 333.334 64.8156 353.226 56.529C321.475 38.3287 284.792 27.708 245.571 27.708ZM137.068 57.3766C99.056 79.4393 68.6193 112.36 49.7576 152.316C53.4728 221.068 118.76 247.178 191.32 248.104C191.273 247.354 191.288 246.608 191.304 245.856C191.312 245.477 191.32 245.097 191.32 244.713C191.32 233.883 194.328 223.513 199.796 215.044C146.602 164.089 134.346 78.8567 137.068 57.3766ZM385.437 110.78C339.281 109.349 298.564 147.07 269.306 196.396C279.879 201.583 288.562 209.639 293.888 220.13C365.16 199.533 446.451 231.893 462.576 244.713C462.576 198.664 448.046 156.078 423.583 120.952C410.668 114.491 397.73 111.161 385.437 110.78ZM299.838 243.57C299.83 243.949 299.822 244.33 299.822 244.713C299.822 255.543 296.813 265.913 291.345 274.382C344.539 325.337 356.796 410.57 354.073 432.05C392.086 409.987 422.522 377.067 441.384 337.11C437.669 268.358 372.382 242.248 299.822 241.322C299.869 242.072 299.853 242.818 299.838 243.57ZM28.5657 244.713C28.5657 290.762 43.096 333.349 67.5588 368.474C128.968 399.196 184.786 355.492 221.836 293.031C211.263 287.843 202.58 279.787 197.253 269.296C125.982 289.893 44.6908 257.533 28.5657 244.713ZM275.24 289.64C266.703 295.241 256.544 298.964 245.571 298.964C245.283 298.964 244.998 298.969 244.715 298.973C244.151 298.982 243.593 298.991 243.028 298.964C225.672 370.824 157.808 424.611 137.916 432.897C169.667 451.097 206.35 461.718 245.571 461.718C251.911 461.718 258.018 461.403 264.22 460.871C321.243 423.047 310.707 352.922 275.24 289.64ZM270.941 254.903C272.306 251.619 273.009 248.101 273.009 244.547C273.009 240.993 272.306 237.474 270.941 234.191C269.576 230.908 267.575 227.924 265.052 225.411C262.53 222.899 259.536 220.905 256.24 219.545C252.944 218.185 249.412 217.485 245.845 217.485C242.278 217.485 238.745 218.185 235.45 219.545C232.154 220.905 229.159 222.899 226.637 225.411C224.115 227.924 222.114 230.908 220.749 234.191C219.384 237.474 218.681 240.993 218.681 244.547C218.681 248.101 219.384 251.619 220.749 254.903C222.114 258.186 224.115 261.169 226.637 263.682C229.159 266.195 232.154 268.188 235.45 269.548C238.745 270.908 242.278 271.608 245.845 271.608C249.412 271.608 252.944 270.908 256.24 269.548C259.536 268.188 262.53 266.195 265.052 263.682C267.575 261.169 269.576 258.186 270.941 254.903Z" fill="#FC3D13"/>
</svg>
