<?xml version="1.0" encoding="UTF-8" standalone="no" ?>
<!DOCTYPE svg PUBLIC "-//W3C//DTD SVG 1.1//EN" "http://www.w3.org/Graphics/SVG/1.1/DTD/svg11.dtd">
<svg xmlns="http://www.w3.org/2000/svg" xmlns:xlink="http://www.w3.org/1999/xlink" version="1.1" width="512" height="512" viewBox="0 0 512 512" xml:space="preserve">
<desc>Created with Fabric.js 3.6.3</desc>
<defs>
</defs>
<rect x="0" y="0" width="100%" height="100%" fill="rgba(204, 29, 29, 0)"></rect>
<g transform="matrix(1.7 0 0 1.7 -32.96 112.98)"  >
<path style="stroke: none; stroke-width: 1; stroke-dasharray: none; stroke-linecap: butt; stroke-dashoffset: 0; stroke-linejoin: miter; stroke-miterlimit: 4; fill: rgb(55,65,73); fill-rule: nonzero; opacity: 1;"  transform=" translate(-37.3, -122.86)" d="M 37.293 122.867 l 0.004 -0.012 v 0.004 C 37.297 122.859 37.293 122.863 37.293 122.867 z" stroke-linecap="round" />
</g>
<g transform="matrix(1.27 0 0 1.27 47.27 206.06)"  >
<path style="stroke: none; stroke-width: 1; stroke-dasharray: none; stroke-linecap: butt; stroke-dashoffset: 0; stroke-linejoin: miter; stroke-miterlimit: 4; fill: rgb(55,65,73); fill-rule: nonzero; opacity: 1;"  transform=" translate(-37.3, -122.86)" d="M 37.293 122.867 l 0.004 -0.012 v 0.004 C 37.297 122.859 37.293 122.863 37.293 122.867 z" stroke-linecap="round" />
</g>
<g transform="matrix(1.17 0 0 1.17 255.49 254.49)"  >
<g style=""   >
		<g transform="matrix(27.03 0 0 27.03 0 0)"  >
<path style="stroke: none; stroke-width: 1; stroke-dasharray: none; stroke-linecap: butt; stroke-dashoffset: 0; stroke-linejoin: miter; stroke-miterlimit: 4; fill: rgb(255,255,255); fill-rule: nonzero; opacity: 1;"  transform=" translate(-8, -8)" d="M 8 0 C 7.7662783 -3.1322393e-17 7.5411335 0.011610998 7.3125 0.03125 C 5.2102943 1.4256475 5.5987411 4.0108346 6.90625 6.34375 C 7.2209706 6.1372503 7.5954602 6 8 6 C 8.0316752 6 8.062435 5.9985435 8.09375 6 C 8.7335699 3.3508722 11.235427 1.3679906 11.96875 1.0625 C 10.798244 0.39154001 9.4458996 -7.7509341e-16 8 0 z M 4 1.09375 C 2.5986515 1.9071018 1.4765974 3.1207274 0.78125 4.59375 C 0.9182133 7.1283275 3.3250439 8.0908827 6 8.125 C 5.9974202 8.0834163 6 8.0422335 6 8 C 6 7.6007368 6.1109237 7.2184502 6.3125 6.90625 C 4.3514736 5.0277432 3.8996391 1.8856213 4 1.09375 z M 13.15625 3.0625 C 11.454675 3.0097524 9.9536158 4.4003424 8.875 6.21875 C 9.2647725 6.4100014 9.5848814 6.7069783 9.78125 7.09375 C 12.408696 6.3344077 15.40554 7.5273725 16 8 C 16 6.3023731 15.464331 4.7324062 14.5625 3.4375 C 14.086383 3.1993071 13.609414 3.0765477 13.15625 3.0625 z M 10 7.875 C 10.00258 7.9165837 10 7.9577665 10 8 C 10 8.3992632 9.8890763 8.7815498 9.6875 9.09375 C 11.648527 10.972257 12.100361 14.114379 12 14.90625 C 13.401349 14.092898 14.523403 12.879273 15.21875 11.40625 C 15.081787 8.8716722 12.674956 7.9091173 10 7.875 z M 0 8 C -4.5501758e-16 9.6976269 0.53566854 11.267594 1.4375 12.5625 C 3.7013779 13.695079 5.7591272 12.083936 7.125 9.78125 C 6.7352275 9.5899986 6.4151186 9.2930217 6.21875 8.90625 C 3.5913037 9.6655923 0.5944604 8.4726275 0 8 z M 9.09375 9.65625 C 8.7790294 9.8627497 8.4045398 10 8 10 C 7.9683248 10 7.937565 10.001457 7.90625 10 C 7.26643 12.649128 4.7645729 14.632009 4.03125 14.9375 C 5.2017564 15.60846 6.5541004 16 8 16 C 8.2337217 16 8.4588665 15.988389 8.6875 15.96875 C 10.789706 14.574352 10.401259 11.989165 9.09375 9.65625 z" stroke-linecap="round" />
</g>
		<g transform="matrix(27.84 0 0 28.38 0.18 -0.19)"  >
<path style="stroke: none; stroke-width: 1; stroke-dasharray: none; stroke-linecap: butt; stroke-dashoffset: 0; stroke-linejoin: miter; stroke-miterlimit: 4; fill: rgb(255,255,255); fill-rule: nonzero; opacity: 1;"  transform=" translate(-8.04, -8)" d="m 9.0156115 8.0008545 a 0.9722718 0.95017475 0 1 1 -1.9445436 0 a 0.9722718 0.95017475 0 1 1 1.9445436 0 z" stroke-linecap="round" />
</g>
</g>
</g>
</svg>